HIERARCHY
ROOT Hip
{
 OFFSET 0.0000 0.0000 0.0000
 CHANNELS 6 Xposition Yposition Zposition Xrotation Yrotation Zrotation
 JOINT LowerSpine
 {
  OFFSET 0.0000 9.5388 -5.6780
  CHANNELS 3 Xrotation Yrotation Zrotation
  JOINT MiddleSpine
  {
   OFFSET 0.0000 8.7049 0.4092
   CHANNELS 3 Xrotation Yrotation Zrotation
   JOINT Chest
   {
    OFFSET 0.0000 10.7713 -2.1578
    CHANNELS 3 Xrotation Yrotation Zrotation
    JOINT Neck
    {
     OFFSET 0.0000 24.2727 -0.4543
     CHANNELS 3 Xrotation Yrotation Zrotation
     JOINT Head
     {
      OFFSET 0.0000 13.7071 3.7283
      CHANNELS 3 Xrotation Yrotation Zrotation
      End Site
      {
       OFFSET 0.0001 19.1523 0.5717
      }
     }
    }
    JOINT LClavicle
    {
     OFFSET 2.2055 23.4243 7.2228
     CHANNELS 3 Xrotation Yrotation Zrotation
     JOINT LShoulder
     {
      OFFSET 12.8847 3.3599 -5.4366
      CHANNELS 3 Xrotation Yrotation Zrotation
      JOINT LForearm
      {
       OFFSET 30.4107 -0.1080 -0.2635
       CHANNELS 3 Xrotation Yrotation Zrotation
       JOINT LHand
       {
        OFFSET 25.3689 0.0736 -0.1519
        CHANNELS 3 Xrotation Yrotation Zrotation
        JOINT LFinger1
        {
         OFFSET 9.8322 0.8599 2.7309
         CHANNELS 3 Xrotation Yrotation Zrotation
         JOINT LFinger11
         {
          OFFSET 3.6778 -0.8968 0.6480
          CHANNELS 3 Xrotation Yrotation Zrotation
          JOINT LFinger12
          {
           OFFSET 2.5107 -0.6125 0.4426
           CHANNELS 3 Xrotation Yrotation Zrotation
           End Site
           {
            OFFSET 1.7866 -0.5333 0.2898
           }
          }
         }
        }
        JOINT LFinger2
        {
         OFFSET 9.9790 0.9930 0.2378
         CHANNELS 3 Xrotation Yrotation Zrotation
         JOINT LFinger21
         {
          OFFSET 4.5474 0.0127 -0.0269
          CHANNELS 3 Xrotation Yrotation Zrotation
          JOINT LFinger22
          {
           OFFSET 2.5205 0.0077 -0.0153
           CHANNELS 3 Xrotation Yrotation Zrotation
           End Site
           {
            OFFSET 2.2640 -0.1599 0.0030
           }
          }
         }
        }
        JOINT LFinger3
        {
         OFFSET 9.4572 0.6626 -2.2373
         CHANNELS 3 Xrotation Yrotation Zrotation
         JOINT LFinger31
         {
          OFFSET 4.1262 -0.2089 -0.2583
          CHANNELS 3 Xrotation Yrotation Zrotation
          JOINT LFinger32
          {
           OFFSET 2.3513 -0.1183 -0.1478
           CHANNELS 3 Xrotation Yrotation Zrotation
           End Site
           {
            OFFSET 2.0790 -0.2556 -0.0983
           }
          }
         }
        }
        JOINT LFinger4
        {
         OFFSET 8.7759 -0.6670 -3.8640
         CHANNELS 3 Xrotation Yrotation Zrotation
         JOINT LFinger41
         {
          OFFSET 2.5380 -0.5293 -0.7006
          CHANNELS 3 Xrotation Yrotation Zrotation
          JOINT LFinger42
          {
           OFFSET 1.8611 -0.3876 -0.5141
           CHANNELS 3 Xrotation Yrotation Zrotation
           End Site
           {
            OFFSET 1.6519 -0.4539 -0.3790
           }
          }
         }
        }
        JOINT LFinger0
        {
         OFFSET 2.0339 -1.5395 1.5419
         CHANNELS 3 Xrotation Yrotation Zrotation
         JOINT LFinger01
         {
          OFFSET 3.7868 -1.2438 2.8551
          CHANNELS 3 Xrotation Yrotation Zrotation
          JOINT LFinger02
          {
           OFFSET 2.4936 -0.8922 1.7966
           CHANNELS 3 Xrotation Yrotation Zrotation
           End Site
           {
            OFFSET 1.8337 -0.6312 1.2556
           }
          }
         }
        }
       }
      }
     }
    }
    JOINT RClavicle
    {
     OFFSET -2.2055 23.4243 7.2228
     CHANNELS 3 Xrotation Yrotation Zrotation
     JOINT RShoulder
     {
      OFFSET -12.8870 3.3605 -5.4375
      CHANNELS 3 Xrotation Yrotation Zrotation
      JOINT RForearm
      {
       OFFSET -30.4107 -0.1080 -0.2635
       CHANNELS 3 Xrotation Yrotation Zrotation
       JOINT RHand
       {
        OFFSET -25.3689 0.0736 -0.1519
        CHANNELS 3 Xrotation Yrotation Zrotation
        JOINT RFinger1
        {
         OFFSET -9.8322 0.8599 2.7309
         CHANNELS 3 Xrotation Yrotation Zrotation
         JOINT RFinger11
         {
          OFFSET -3.6778 -0.8968 0.6480
          CHANNELS 3 Xrotation Yrotation Zrotation
          JOINT RFinger12
          {
           OFFSET -2.5107 -0.6125 0.4426
           CHANNELS 3 Xrotation Yrotation Zrotation
           End Site
           {
            OFFSET -1.7866 -0.5333 0.2898
           }
          }
         }
        }
        JOINT RFinger2
        {
         OFFSET -9.9790 0.9930 0.2378
         CHANNELS 3 Xrotation Yrotation Zrotation
         JOINT RFinger21
         {
          OFFSET -4.5474 0.0127 -0.0269
          CHANNELS 3 Xrotation Yrotation Zrotation
          JOINT RFinger22
          {
           OFFSET -2.5205 0.0077 -0.0153
           CHANNELS 3 Xrotation Yrotation Zrotation
           End Site
           {
            OFFSET -2.2640 -0.1599 0.0030
           }
          }
         }
        }
        JOINT RFinger3
        {
         OFFSET -9.4572 0.6626 -2.2373
         CHANNELS 3 Xrotation Yrotation Zrotation
         JOINT RFinger31
         {
          OFFSET -4.1262 -0.2089 -0.2583
          CHANNELS 3 Xrotation Yrotation Zrotation
          JOINT RFinger32
          {
           OFFSET -2.3513 -0.1183 -0.1478
           CHANNELS 3 Xrotation Yrotation Zrotation
           End Site
           {
            OFFSET -2.0790 -0.2556 -0.0983
           }
          }
         }
        }
        JOINT RFinger4
        {
         OFFSET -8.7759 -0.6670 -3.8640
         CHANNELS 3 Xrotation Yrotation Zrotation
         JOINT RFinger41
         {
          OFFSET -2.5380 -0.5293 -0.7006
          CHANNELS 3 Xrotation Yrotation Zrotation
          JOINT RFinger42
          {
           OFFSET -1.8611 -0.3876 -0.5141
           CHANNELS 3 Xrotation Yrotation Zrotation
           End Site
           {
            OFFSET -1.6519 -0.4539 -0.3790
           }
          }
         }
        }
        JOINT RFinger0
        {
         OFFSET -2.0339 -1.5395 1.5419
         CHANNELS 3 Xrotation Yrotation Zrotation
         JOINT RFinger01
         {
          OFFSET -3.7869 -1.2438 2.8551
          CHANNELS 3 Xrotation Yrotation Zrotation
          JOINT RFinger02
          {
           OFFSET -2.4936 -0.8922 1.7966
           CHANNELS 3 Xrotation Yrotation Zrotation
           End Site
           {
            OFFSET -1.8337 -0.6312 1.2556
           }
          }
         }
        }
       }
      }
     }
    }
   }
  }
 }
 JOINT RThigh
 {
  OFFSET -11.2783 4.3118 -0.9252
  CHANNELS 3 Xrotation Yrotation Zrotation
  JOINT RShin
  {
   OFFSET -0.8165 -44.3834 0.0000
   CHANNELS 3 Xrotation Yrotation Zrotation
   JOINT RFoot
   {
    OFFSET 0.0000 -43.5818 0.0000
    CHANNELS 3 Xrotation Yrotation Zrotation
    JOINT RToe
    {
     OFFSET 0.0000 -4.7900 10.0166
     CHANNELS 3 Xrotation Yrotation Zrotation
     End Site
     {
      OFFSET 0.0000 0.0000 6.7197
     }
    }
   }
  }
 }
 JOINT LThigh
 {
  OFFSET 11.2782 4.3121 -0.9252
  CHANNELS 3 Xrotation Yrotation Zrotation
  JOINT LShin
  {
   OFFSET 0.8166 -44.3837 0.0000
   CHANNELS 3 Xrotation Yrotation Zrotation
   JOINT LFoot
   {
    OFFSET 0.0000 -43.5818 0.0000
    CHANNELS 3 Xrotation Yrotation Zrotation
    JOINT LToe
    {
     OFFSET 0.0000 -4.7900 10.0166
     CHANNELS 3 Xrotation Yrotation Zrotation
     End Site
     {
      OFFSET 0.0000 0.0000 6.7197
     }
    }
   }
  }
 }
}
MOTION
Frames: 8
Frame Time: 0.0333333000
 97.2704 37.4008 65.8122 -35.718280 -128.014600 -30.874450 6.791320 0.129051 1.787870 6.861808 0.097694 1.791229 7.027677 0.026729 1.795851 0.000000 0.000000 0.000000 0.000000 0.000000 0.000000 0.000000 0.000000 -14.365820 -6.501780 -43.729740 -69.124320 -2.868037 -68.622760 3.067681 -2.268004 -0.929476 -0.679273 0.000000 0.000000 0.000000 0.000000 0.000000 0.000000 0.000000 0.000000 0.000000 0.000000 0.000000 0.000000 0.000000 0.000000 0.000000 0.000000 0.000000 0.000000 0.000000 0.000000 0.000000 0.000000 0.000000 0.000000 0.000000 0.000000 0.000000 0.000000 0.000000 0.000000 0.000000 0.000000 0.000000 0.000000 0.000000 0.000000 0.000000 0.000000 0.000000 0.000000 0.000000 0.000000 0.000000 -0.312464 0.000000 0.000000 0.000000 5.702372 -65.253100 7.698570 78.643470 -72.679120 78.677640 2.036370 88.401100 -20.555700 -19.116820 0.000000 0.000000 0.000000 0.000000 0.000000 0.000000 0.000000 0.000000 0.000000 0.000000 0.000000 0.000000 0.000000 0.000000 0.000000 0.000000 0.000000 0.000000 0.000000 0.000000 0.000000 0.000000 0.000000 0.000000 0.000000 0.000000 0.000000 0.000000 0.000000 0.000000 0.000000 0.000000 0.000000 0.000000 0.000000 0.000000 0.000000 0.000000 0.000000 0.000000 0.000000 0.000000 0.000000 0.000000 0.000000 -132.462800 13.615920 -16.177600 141.542700 20.107990 20.648610 -0.071571 1.778536 0.721743 0.000000 0.000000 0.000000 -89.061700 -10.738780 2.086540 159.828400 4.706682 1.407263 0.301175 -3.779423 -1.703986 0.000048 0.000000 0.000000
 -6.8953 75.3313 -4.8491 23.708940 -59.567430 22.889620 3.417036 0.038425 0.901346 3.201312 0.245549 0.996934 2.768253 0.725104 1.250869 0.000000 0.000000 0.000000 0.000000 0.000000 0.000000 0.000000 0.000000 -8.297056 -16.448200 -13.293140 -38.600200 -27.058160 -46.092750 -2.954064 -1.128396 -0.466400 -0.332563 0.000000 0.000000 0.000000 0.000000 0.000000 0.000000 0.000000 0.000000 0.000000 0.000000 0.000000 0.000000 0.000000 0.000000 0.000000 0.000000 0.000000 0.000000 0.000000 0.000000 0.000000 0.000000 0.000000 0.000000 0.000000 0.000000 0.000000 0.000000 0.000000 0.000000 0.000000 0.000000 0.000000 0.000000 0.000000 0.000000 0.000000 0.000000 0.000000 0.000000 0.000000 0.000000 0.000000 -0.312464 0.000000 0.000000 0.000000 3.936815 -56.975630 2.394787 41.706210 -62.984120 49.970820 -1.628038 44.341820 -6.191826 -13.140910 0.000000 0.000000 0.000000 0.000000 0.000000 0.000000 0.000000 0.000000 0.000000 0.000000 0.000000 0.000000 0.000000 0.000000 0.000000 0.000000 0.000000 0.000000 0.000000 0.000000 0.000000 0.000000 0.000000 0.000000 0.000000 0.000000 0.000000 0.000000 0.000000 0.000000 0.000000 0.000000 0.000000 0.000000 0.000000 0.000000 0.000000 0.000000 0.000000 0.000000 0.000000 0.000000 0.000000 0.000000 0.000000 -69.005000 -1.181168 -5.130548 72.993620 1.795860 11.965390 -1.248234 -0.102763 -0.095881 0.000000 0.000000 0.000000 -49.238960 -11.198730 5.610497 81.107030 -0.639815 7.240436 0.461918 4.790817 2.304613 0.000000 0.000000 0.000000
 -59.2172 94.4124 -40.3515 6.551866 -23.282990 1.600586 1.320045 0.008470 0.348441 0.769926 0.369062 0.474155 -0.261241 1.194093 0.893790 0.000000 0.000000 0.000000 0.000000 0.000000 0.000000 0.000000 0.000000 -4.334232 -29.572820 2.876527 -17.010620 -37.290180 -31.134590 -0.806471 -0.384183 -0.159655 -0.111612 0.000000 0.000000 0.000000 0.000000 0.000000 0.000000 0.000000 0.000000 0.000000 0.000000 0.000000 0.000000 0.000000 0.000000 0.000000 0.000000 0.000000 0.000000 0.000000 0.000000 0.000000 0.000000 0.000000 0.000000 0.000000 0.000000 0.000000 0.000000 0.000000 0.000000 0.000000 0.000000 0.000000 0.000000 0.000000 0.000000 0.000000 0.000000 0.000000 0.000000 0.000000 0.000000 0.000000 -0.312464 0.000000 0.000000 0.000000 2.686175 -54.708320 -2.830974 18.626710 -60.094930 31.405840 -0.568953 15.258710 -0.906158 -4.640194 0.000000 0.000000 0.000000 0.000000 0.000000 0.000000 0.000000 0.000000 0.000000 0.000000 0.000000 0.000000 0.000000 0.000000 0.000000 0.000000 0.000000 0.000000 0.000000 0.000000 0.000000 0.000000 0.000000 0.000000 0.000000 0.000000 0.000000 0.000000 0.000000 0.000000 0.000000 0.000000 0.000000 0.000000 0.000000 0.000000 0.000000 0.000000 0.000000 0.000000 0.000000 0.000000 0.000000 0.000000 0.000000 -26.439300 -1.369023 6.061132 26.932270 -0.530147 0.238623 -2.043817 -2.058461 -1.020340 0.000000 0.000000 0.000000 -23.287240 -8.511600 7.660522 29.770750 -4.594208 4.695566 0.310915 8.085134 3.835585 0.000000 0.000000 0.000000
 -69.9306 98.1751 -47.7172 4.680756 -8.256773 -2.169610 0.615614 0.002951 0.162521 -0.268010 0.425992 0.249453 -2.043953 1.403557 0.635737 0.000000 0.000000 0.000000 0.000000 0.000000 0.000000 0.000000 0.000000 -2.676821 -33.602160 8.490819 -7.239880 -38.043080 -24.511920 0.847759 -0.083491 -0.034772 -0.024012 0.000000 0.000000 0.000000 0.000000 0.000000 0.000000 0.000000 0.000000 0.000000 0.000000 0.000000 0.000000 0.000000 0.000000 0.000000 0.000000 0.000000 0.000000 0.000000 0.000000 0.000000 0.000000 0.000000 0.000000 0.000000 0.000000 0.000000 0.000000 0.000000 0.000000 0.000000 0.000000 0.000000 0.000000 0.000000 0.000000 0.000000 0.000000 0.000000 0.000000 0.000000 0.000000 0.000000 -0.312464 0.000000 0.000000 0.000000 2.049104 -56.734010 -4.092306 10.120910 -59.483090 24.057280 -0.701683 3.320087 -0.076700 -0.967139 0.000000 0.000000 0.000000 0.000000 0.000000 0.000000 0.000000 0.000000 0.000000 0.000000 0.000000 0.000000 0.000000 0.000000 0.000000 0.000000 0.000000 0.000000 0.000000 0.000000 0.000000 0.000000 0.000000 0.000000 0.000000 0.000000 0.000000 0.000000 0.000000 0.000000 0.000000 0.000000 0.000000 0.000000 0.000000 0.000000 0.000000 0.000000 0.000000 0.000000 0.000000 0.000000 0.000000 0.000000 0.000000 -9.364194 0.313185 9.030758 7.934807 0.246198 -3.186689 -2.305339 -1.619727 -0.817423 0.000000 0.000000 0.000000 -13.247030 -4.556925 7.617398 9.178615 -2.828763 2.931338 -0.065946 4.757455 2.276443 0.000000 0.000000 0.000000
 -70.0699 97.8773 -48.0182 4.524672 -4.930121 -2.499900 0.468798 0.002089 0.123764 -0.592755 0.443851 0.177859 -3.176212 1.503596 0.394925 0.000000 0.000000 0.000000 0.000000 0.000000 0.000000 0.000000 0.000000 -2.149724 -29.135560 9.831063 -5.063468 -30.155230 -21.662220 3.697715 -0.008349 -0.003479 -0.002392 0.000000 0.000000 0.000000 0.000000 0.000000 0.000000 0.000000 0.000000 0.000000 0.000000 0.000000 0.000000 0.000000 0.000000 0.000000 0.000000 0.000000 0.000000 0.000000 0.000000 0.000000 0.000000 0.000000 0.000000 0.000000 0.000000 0.000000 0.000000 0.000000 0.000000 0.000000 0.000000 0.000000 0.000000 0.000000 0.000000 0.000000 0.000000 0.000000 0.000000 0.000000 0.000000 0.000000 -0.312464 0.000000 0.000000 0.000000 1.805583 -61.981560 -3.208446 8.942881 -58.590130 21.948070 -2.420875 0.332125 -0.006808 -0.092790 0.000000 0.000000 0.000000 0.000000 0.000000 0.000000 0.000000 0.000000 0.000000 0.000000 0.000000 0.000000 0.000000 0.000000 0.000000 0.000000 0.000000 0.000000 0.000000 0.000000 0.000000 0.000000 0.000000 0.000000 0.000000 0.000000 0.000000 0.000000 0.000000 0.000000 0.000000 0.000000 0.000000 0.000000 0.000000 0.000000 0.000000 0.000000 0.000000 0.000000 0.000000 0.000000 0.000000 0.000000 0.000000 -5.333284 -0.035042 9.803655 3.187745 -1.078636 -4.681113 -1.811341 0.316810 0.161389 0.000000 0.000000 0.000000 -10.866780 -1.530792 5.831594 4.307998 0.556799 3.356952 -0.907757 0.316284 0.145829 0.000000 0.000000 0.000000
 -70.0983 97.5160 -48.2497 4.508724 -4.990664 -2.014619 0.449731 0.001984 0.118731 -0.704257 0.450279 0.154908 -3.798682 1.559034 0.239382 0.000000 0.000000 0.000000 0.000000 0.000000 0.000000 0.000000 0.000000 -1.942323 -21.939840 9.576681 -5.114412 -18.956660 -19.224220 7.292879 0.000000 0.000000 0.000000 0.000000 0.000000 0.000000 0.000000 0.000000 0.000000 0.000000 0.000000 0.000000 0.000000 0.000000 0.000000 0.000000 0.000000 0.000000 0.000000 0.000000 0.000000 0.000000 0.000000 0.000000 0.000000 0.000000 0.000000 0.000000 0.000000 0.000000 0.000000 0.000000 0.000000 0.000000 0.000000 0.000000 0.000000 0.000000 0.000000 0.000000 0.000000 0.000000 0.000000 0.000000 0.000000 0.000000 -0.312464 0.000000 0.000000 0.000000 1.708700 -68.121640 -2.024094 9.787406 -56.229800 21.170940 -5.076104 0.000000 0.000000 0.000000 0.000000 0.000000 0.000000 0.000000 0.000000 0.000000 0.000000 0.000000 0.000000 0.000000 0.000000 0.000000 0.000000 0.000000 0.000000 0.000000 0.000000 0.000000 0.000000 0.000000 0.000000 0.000000 0.000000 0.000000 0.000000 0.000000 0.000000 0.000000 0.000000 0.000000 0.000000 0.000000 0.000000 0.000000 0.000000 0.000000 0.000000 0.000000 0.000000 0.000000 0.000000 0.000000 0.000000 0.000000 0.000000 -4.835033 -0.315312 9.555175 2.374545 -2.865706 -4.829168 -0.795853 1.864256 0.906511 0.000000 0.000000 0.000000 -9.964252 -0.533990 3.985263 3.802846 2.757099 3.470195 -1.449310 -1.927272 -0.949901 0.000000 0.000000 0.000000
 -70.1041 97.2945 -48.3865 4.456015 -5.305201 -1.628025 0.413260 0.001789 0.109103 -0.788895 0.455264 0.139259 -4.058030 1.581335 0.184954 0.000000 0.000000 0.000000 0.000000 0.000000 0.000000 0.000000 0.000000 -1.893191 -17.246100 9.358592 -4.914554 -11.959560 -17.554770 8.799928 0.000000 0.000000 0.000000 0.000000 0.000000 0.000000 0.000000 0.000000 0.000000 0.000000 0.000000 0.000000 0.000000 0.000000 0.000000 0.000000 0.000000 0.000000 0.000000 0.000000 0.000000 0.000000 0.000000 0.000000 0.000000 0.000000 0.000000 0.000000 0.000000 0.000000 0.000000 0.000000 0.000000 0.000000 0.000000 0.000000 0.000000 0.000000 0.000000 0.000000 0.000000 0.000000 0.000000 0.000000 0.000000 0.000000 -0.312464 0.000000 0.000000 0.000000 1.683399 -71.829930 -1.320787 10.575920 -54.318910 20.898400 -6.956843 0.000000 0.000000 0.000000 0.000000 0.000000 0.000000 0.000000 0.000000 0.000000 0.000000 0.000000 0.000000 0.000000 0.000000 0.000000 0.000000 0.000000 0.000000 0.000000 0.000000 0.000000 0.000000 0.000000 0.000000 0.000000 0.000000 0.000000 0.000000 0.000000 0.000000 0.000000 0.000000 0.000000 0.000000 0.000000 0.000000 0.000000 0.000000 0.000000 0.000000 0.000000 0.000000 0.000000 0.000000 0.000000 0.000000 0.000000 0.000000 -4.622053 -0.284887 9.165301 1.973770 -3.847512 -4.559689 -0.103996 2.680889 1.288350 0.000000 0.000000 0.000000 -8.865906 -0.327642 2.134272 3.553691 3.731827 3.856859 -1.468312 -2.929504 -1.441094 0.000000 0.000000 0.000000
 -70.0809 97.2208 -48.4371 4.485952 -5.449105 -1.415338 0.377946 0.001605 0.099780 -0.873166 0.459900 0.124001 -4.214210 1.591467 0.164149 0.000000 0.000000 0.000000 0.000000 0.000000 0.000000 0.000000 0.000000 -1.810257 -15.529920 9.512880 -4.485101 -9.968306 -17.246690 8.214347 0.000000 0.000000 0.000000 0.000000 0.000000 0.000000 0.000000 0.000000 0.000000 0.000000 0.000000 0.000000 0.000000 0.000000 0.000000 0.000000 0.000000 0.000000 0.000000 0.000000 0.000000 0.000000 0.000000 0.000000 0.000000 0.000000 0.000000 0.000000 0.000000 0.000000 0.000000 0.000000 0.000000 0.000000 0.000000 0.000000 0.000000 0.000000 0.000000 0.000000 0.000000 0.000000 0.000000 0.000000 0.000000 0.000000 -0.312464 0.000000 0.000000 0.000000 1.654879 -72.889630 -1.058285 11.027010 -53.893700 21.032520 -7.670485 0.000000 0.000000 0.000000 0.000000 0.000000 0.000000 0.000000 0.000000 0.000000 0.000000 0.000000 0.000000 0.000000 0.000000 0.000000 0.000000 0.000000 0.000000 0.000000 0.000000 0.000000 0.000000 0.000000 0.000000 0.000000 0.000000 0.000000 0.000000 0.000000 0.000000 0.000000 0.000000 0.000000 0.000000 0.000000 0.000000 0.000000 0.000000 0.000000 0.000000 0.000000 0.000000 0.000000 0.000000 0.000000 0.000000 0.000000 0.000000 -4.505836 -0.265708 8.853901 1.718313 -4.081959 -4.305128 0.076404 2.973077 1.419374 0.000000 0.000000 0.000000 -7.765753 -0.180079 0.537001 3.276455 3.993180 4.353263 -1.808762 -3.469859 -1.726569 0.000000 0.000000 0.000000
